#!OML:ASF E:\Steps\Project 1\Capture day 1\Session 2\Subject.ASF
:FULLY-SPECIFIED
:DEGREES
346
root -1.07443 17.9662 20.92 -153.82 -3.21713 178.036
lowerback -27.4007 -0.92354 -7.65241
upperback -0.453213 0.796642 -0.331747
thorax 13.9811 -0.326786 4.07297
lowerneck -2.73103 -1.55203 -1.03777
upperneck 26.2872 -5.32148 2.3138
head 8.71657 -3.31634 0.385119
rclavicle -2.70844e-014 -1.31198e-014
rhumerus -37.739 -26.9703 -73.5544
rradius 18.6968
rwrist 11.8073
rhand -9.1318 -59.5412
rfingers 7.12502
rthumb 16.8196 631.167
lclavicle -2.70844e-014 -1.31198e-014
lhumerus -28.5548 2.05191 84.6544
lradius 18.1944
lwrist -5.99283
lhand -19.7598 -11.1144
lfingers 7.12502
lthumb 6.57175 18.7636
rfemur -23.6392 3.93471 19.8459
rtibia 5.29968
rfoot -16.9203 -0.555625
rtoes -16.264
lfemur -24.429 -6.82099 -23.1357
ltibia 6.47888
lfoot -5.79446 -3.16152
ltoes -34.344
347
root -1.07275 17.9674 20.9239 -153.919 -3.28522 178.054
lowerback -27.203 -1.00705 -7.6771
upperback -0.40851 0.684843 -0.282867
thorax 13.9521 -0.374868 4.10038
lowerneck -2.85461 -1.65675 -0.981978
upperneck 26.562 -5.52337 2.22043
head 8.83608 -3.42601 0.318247
rclavicle -6.95746e-016 3.37934e-015
rhumerus -38.1314 -28.3303 -72.3514
rradius 18.2522
rwrist 12.5594
rhand -8.4073 -56.1286
rfingers 7.12502
rthumb 17.5169 634.641
lclavicle -6.95746e-016 3.37934e-015
lhumerus -28.433 2.33809 84.5909
lradius 18.1041
lwrist -6.35875
lhand -20.2871 -11.3912
lfingers 7.12502
lthumb 6.06265 18.502
rfemur -23.4443 4.11995 19.8456
rtibia 5.1387
rfoot -16.8104 -0.749949
rtoes -16.417
lfemur -24.333 -6.7705 -23.1
ltibia 6.47348
lfoot -5.73283 -3.26823
ltoes -34.0544
348
root -1.07548 17.9673 20.9283 -153.923 -3.37632 178.127
lowerback -27.1259 -1.07216 -7.57946
upperback -0.383324 0.563611 -0.236463
thorax 13.9617 -0.422402 4.05451
lowerneck -2.96067 -1.66718 -0.861449
upperneck 26.9702 -5.64556 2.15808
head 8.99753 -3.49826 0.253941
rclavicle -1.11816e-014 -1.86858e-014
rhumerus -37.9457 -27.343 -73.0712
rradius 18.6177
rwrist 12.1594
rhand -8.74021 -57.9922
rfingers 7.12502
rthumb 17.1965 632.749
lclavicle -1.11816e-014 -1.86858e-014
lhumerus -28.4068 2.31847 84.6027
lradius 18.1278
lwrist -6.63944
lhand -21.036 -11.6239
lfingers 7.12502
lthumb 5.33964 18.2888
rfemur -23.4455 4.25214 19.9071
rtibia 5.13097
rfoot -16.7959 -0.914388
rtoes -16.3169
lfemur -24.3924 -6.81724 -22.9931
ltibia 6.54696
lfoot -5.73247 -3.27005
ltoes -33.6955
349
root -1.07703 17.9686 20.9329 -153.902 -3.43429 178.199
lowerback -27.057 -1.12368 -7.52345
upperback -0.737511 0.468142 -0.298954
thorax 14.2858 -0.484852 4.12955
lowerneck -2.74106 -1.57056 -0.909003
upperneck 26.9211 -5.54144 2.24325
head 8.94112 -3.45658 0.30505
rclavicle 3.23025e-015 -2.26615e-014
rhumerus -37.9506 -26.8267 -73.3589
rradius 18.8705
rwrist 11.0225
rhand -9.45069 -58.4447
rfingers 7.12502
rthumb 16.5126 632.238
lclavicle 3.23025e-015 -2.26615e-014
lhumerus -28.3756 2.27748 84.5583
lradius 18.1326
lwrist -6.76851
lhand -21.4372 -11.8051
lfingers 7.12502
lthumb 4.95222 18.1171
rfemur -23.5007 4.37909 19.9653
rtibia 5.16554
rfoot -16.8349 -1.03615
rtoes -16.0416
lfemur -24.4787 -6.8176 -22.8912
ltibia 6.62113
lfoot -5.73438 -3.28249
ltoes -33.3227
350
root -1.07988 17.9713 20.9392 -153.878 -3.42898 178.19
lowerback -26.9507 -1.17071 -7.53498
upperback -0.75696 0.398853 -0.298207
thorax 14.2128 -0.513285 4.10954
lowerneck -2.29087 -1.63614 -0.923615
upperneck 26.6113 -5.63902 2.32371
head 8.75439 -3.50575 0.342031
rclavicle 4.17448e-015 1.92821e-014
rhumerus -38.1212 -26.8697 -73.2345
rradius 18.9743
rwrist 10.327
rhand -10.5838 -57.6144
rfingers 7.12502
rthumb 15.4214 632.981
lclavicle 4.17448e-015 1.92821e-014
lhumerus -28.3089 2.51936 84.3526
lradius 18.0968
lwrist -6.93707
lhand -21.3441 -11.9166
lfingers 7.12502
lthumb 5.04214 18.0035
rfemur -23.5765 4.2348 19.9701
rtibia 5.20365
rfoot -16.8096 -0.851278
rtoes -16.0801
lfemur -24.5594 -6.78194 -22.9199
ltibia 6.6929
lfoot -5.78852 -3.38141
ltoes -33.1668
351
root -1.08458 17.9741 20.9454 -153.931 -3.43666 178.141
lowerback -26.7936 -1.21636 -7.54314
upperback -0.72752 0.337022 -0.306261
thorax 14.17 -0.537063 4.08061
lowerneck -2.14146 -1.64656 -0.895427
upperneck 26.5899 -5.66919 2.29432
head 8.71867 -3.52829 0.328074
rclavicle 4.42296e-015 2.72335e-014
rhumerus -38.2672 -27.2011 -72.8972
rradius 19.0243
rwrist 11.082
rhand -9.89725 -57.3404
rfingers 7.12502
rthumb 16.0826 633.307
lclavicle 4.42296e-015 2.72335e-014
lhumerus -28.3013 2.6229 84.2079
lradius 18.2341
lwrist -7.13934
lhand -21.3834 -11.9606
lfingers 7.12502
lthumb 5.00414 17.9603
rfemur -23.5378 3.95094 19.9519
rtibia 5.19267
rfoot -16.75 -0.590757
rtoes -15.7793
lfemur -24.531 -6.82956 -23.0104
ltibia 6.73871
lfoot -5.8954 -3.4149
ltoes -33.4802
352
root -1.08725 17.977 20.9483 -154.105 -3.50457 178.183
lowerback -26.5705 -1.25313 -7.48564
upperback -0.628528 0.270952 -0.273577
thorax 14.1752 -0.558495 4.06065
lowerneck -2.34869 -1.67217 -0.819731
upperneck 26.9375 -5.74092 2.11249
head 8.87282 -3.58049 0.23536
rclavicle -5.56597e-015 -2.5842e-015
rhumerus -38.2042 -27.2301 -72.811
rradius 19.0542
rwrist 11.5809
rhand -8.8703 -57.3148
rfingers 7.12502
rthumb 17.0713 633.415
lclavicle -5.56597e-015 -2.5842e-015
lhumerus -28.267 2.35148 84.2828
lradius 18.5235
lwrist -6.76479
lhand -21.2806 -12.0378
lfingers 7.12502
lthumb 5.10341 17.8808
rfemur -23.3264 3.81682 20.0264
rtibia 5.13849
rfoot -16.7052 -0.4653
rtoes -14.9844
lfemur -24.3472 -6.85829 -22.982
ltibia 6.72891
lfoot -5.87634 -3.37168
ltoes -33.999
353
root -1.08554 17.9744 20.9541 -154.006 -3.44066 178.216
lowerback -26.6021 -1.29425 -7.54775
upperback -0.595344 0.238241 -0.231031
thorax 14.2365 -0.581153 4.13418
lowerneck -2.52736 -1.68609 -0.771748
upperneck 27.181 -5.78255 1.98754
head 8.98742 -3.61169 0.17159
rclavicle 3.32964e-015 -1.78906e-015
rhumerus -37.9729 -26.8892 -73.0156
rradius 18.9884
rwrist 11.1345
rhand -9.26232 -56.5432
rfingers 7.12502
rthumb 16.6939 634.155
lclavicle 3.32964e-015 -1.78906e-015
lhumerus -28.0952 2.23969 84.3688
lradius 18.7444
lwrist -6.04011
lhand -20.7923 -11.943
lfingers 7.12502
lthumb 5.57485 17.9637
rfemur -23.5136 3.89056 20.0822
rtibia 5.24436
rfoot -16.7098 -0.408443
rtoes -14.6081
lfemur -24.503 -6.40324 -23.0535
ltibia 6.7854
lfoot -5.80951 -3.73162
ltoes -34.1713
354
root -1.09573 17.9769 20.9533 -154.09 -3.45396 178.197
lowerback -26.515 -1.31518 -7.49711
upperback -0.53311 0.199123 -0.218141
thorax 14.2688 -0.594122 4.1055
lowerneck -2.4363 -1.67648 -0.799907
upperneck 27.1194 -5.78188 2.05298
head 8.95165 -3.61037 0.201882
rclavicle 2.83268e-015 -1.51076e-014
rhumerus -37.9354 -26.7115 -73.0285
rradius 18.9187
rwrist 10.9227
rhand -9.26879 -56.1917
rfingers 7.12502
rthumb 16.6877 634.506
lclavicle 2.83268e-015 -1.51076e-014
lhumerus -28.0362 1.9818 84.4764
lradius 18.9795
lwrist -5.4186
lhand -20.7598 -11.6484
lfingers 7.12502
lthumb 5.60622 18.2574
rfemur -23.4449 3.87853 19.9636
rtibia 5.27769
rfoot -16.7521 -0.507441
rtoes -14.9277
lfemur -24.3841 -6.71224 -23.044
ltibia 6.71112
lfoot -5.92066 -3.46666
ltoes -34.1579
355
root -1.09862 17.9759 20.9593 -154.027 -3.40139 178.164
lowerback -26.4627 -1.32649 -7.56406
upperback -0.561855 0.193957 -0.203183
thorax 14.2056 -0.599625 4.15908
lowerneck -2.29943 -1.69743 -0.829376
upperneck 27.0805 -5.81229 2.03015
head 8.91328 -3.63515 0.200377
rclavicle 5.46658e-015 3.97569e-015
rhumerus -38.0545 -26.7002 -72.8827
rradius 18.928
rwrist 11.1032
rhand -8.51933 -56.6795
rfingers 7.12502
rthumb 17.4091 634.08
lclavicle 5.46658e-015 3.97569e-015
lhumerus -28.1233 1.49798 84.609
lradius 19.2603
lwrist -5.14569
lhand -21.297 -11.6709
lfingers 7.12502
lthumb 5.08757 18.2481
rfemur -23.5929 3.92033 19.8855
rtibia 5.37603
rfoot -16.8283 -0.56813
rtoes -15.3692
lfemur -24.5087 -6.65119 -23.0997
ltibia 6.76477
lfoot -5.92912 -3.55025
ltoes -33.1721
356
root -1.10293 17.9747 20.9613 -154.006 -3.37147 178.145
lowerback -26.4451 -1.35558 -7.59685
upperback -0.559202 0.161193 -0.173664
thorax 14.2033 -0.617465 4.20001
lowerneck -2.36358 -1.65713 -0.876183
upperneck 27.2839 -5.77713 1.94968
head 8.99488 -3.63933 0.177513
rclavicle 1.19271e-015 -3.49861e-014
rhumerus -38.0558 -26.177 -73.1172
rradius 19.1595
rwrist 10.6295
rhand -9.68883 -56.5451
rfingers 7.12502
rthumb 16.2833 634.119
lclavicle 1.19271e-015 -3.49861e-014
lhumerus -28.1437 1.61459 84.5477
lradius 19.4521
lwrist -5.44627
lhand -21.8124 -12.7395
lfingers 7.12502
lthumb 4.58988 17.1908
rfemur -23.6489 3.90356 19.8366
rtibia 5.42253
rfoot -16.8813 -0.515674
rtoes -15.6391
lfemur -24.5391 -6.59739 -23.161
ltibia 6.77556
lfoot -5.89192 -3.60639
ltoes -32.7098
357
root -1.10781 17.9751 20.9634 -153.998 -3.36453 178.17
lowerback -26.4253 -1.36888 -7.55121
upperback -0.541023 0.127971 -0.140449
thorax 14.2186 -0.630162 4.20012
lowerneck -2.35118 -1.78498 -0.902828
upperneck 27.4745 -6.02251 1.93253
head 9.06555 -3.77262 0.150297
rclavicle 3.27995e-015 1.55052e-014
rhumerus -38.0286 -25.5727 -73.4166
rradius 19.456
rwrist 9.95289
rhand -9.40872 -57.2701
rfingers 7.12502
rthumb 16.553 633.416
lclavicle 3.27995e-015 1.55052e-014
lhumerus -28.1441 1.86675 84.4517
lradius 19.6806
lwrist -5.58733
lhand -21.3336 -11.7718
lfingers 7.12502
lthumb 5.05223 18.1479
rfemur -23.6895 3.96681 19.8249
rtibia 5.46663
rfoot -16.8335 -0.541173
rtoes -15.6622
lfemur -24.5563 -6.54715 -23.1717
ltibia 6.76428
lfoot -5.87606 -3.64745
ltoes -32.6801
358
root -1.11133 17.9762 20.9671 -154.055 -3.32325 178.185
lowerback -26.2744 -1.3393 -7.50672
upperback -0.526669 0.148783 -0.163396
thorax 14.1498 -0.612112 4.15514
lowerneck -2.18189 -1.9119 -0.858774
upperneck 27.4882 -6.24273 1.91363
head 9.04203 -3.88489 0.120853
rclavicle -1.64991e-014 7.35503e-015
rhumerus -38.1393 -25.3883 -73.499
rradius 19.7185
rwrist 9.9263
rhand -9.55737 -56.9998
rfingers 7.12502
rthumb 16.4099 633.674
lclavicle -1.64991e-014 7.35503e-015
lhumerus -28.1778 1.629 84.4501
lradius 19.975
lwrist -5.41134
lhand -21.2054 -12.157
lfingers 7.12502
lthumb 5.17604 17.7598
rfemur -23.6741 4.03634 19.7977
rtibia 5.51258
rfoot -16.7839 -0.575969
rtoes -15.5863
lfemur -24.5003 -6.56874 -23.163
ltibia 6.72683
lfoot -5.83319 -3.51956
ltoes -32.9734
